# xmcd CD database file
#
# Track frame offsets:
#	150
#	11465
#	24887
#	39380
#	47377
#	63540
#	71527
#	81937
#	89685
#	101020
#	114410
#	124360
#	141540
#	151987
#	166352
#	180602
#	193547
#
# Disc length: 2776 seconds
#
# Revision: 0
# Processed by: cddbd v1.5.1PL0 Copyright (c) Steve Scherf et al.
# Submitted via: CDex 1.51
#
DISCID=e20ad611
DTITLE=BING CROSBY - TEMPTATION
DYEAR=1995
DGENRE=Blues
TTITLE0=LADY OF SPAIN
TTITLE1=THE VERY THOUGHT OF YOU
TTITLE2=JUNE IN JANUARY
TTITLE3=ZIP-A-DEE-DOO-DAH
TTITLE4=P.S. I LOVE YOU
TTITLE5=IF THIS ISN'T LOVE
TTITLE6=OLE BUTTERMILK SKY
TTITLE7=GREAT DAY
TTITLE8=I GOT THE SUN IN THE MORNING
TTITLE9=MAY I?
TTITLE10=IT'S A GOOD DAY
TTITLE11=YOU GO TO MY HEAD
TTITLE12=THE OLD LAMPLIGHTER
TTITLE13=WITH EVERY BREATH I TAKE
TTITLE14=TEMTATION
TTITLE15=YOU'RE GETTING TO BE A HABIT WITH ME
TTITLE16=SOMEDAY, SWEETHEART
EXTD=YEAR: 1995
EXTT0=
EXTT1=
EXTT2=
EXTT3=
EXTT4=
EXTT5=
EXTT6=
EXTT7=
EXTT8=
EXTT9=
EXTT10=
EXTT11=
EXTT12=
EXTT13=
EXTT14=
EXTT15=
EXTT16=
PLAYORDER=
